<?xml version="1.0" encoding="UTF-8"?>
<svg width="180px" height="180px" viewBox="0 0 180 180" version="1.1" xmlns="http://www.w3.org/2000/svg" xmlns:xlink="http://www.w3.org/1999/xlink">
    <title>1.通用/空状态/好像断开连接了 刷新一下吧</title>
    <defs>
        <polygon id="path-1" points="0 0 107 0 107 13.4909091 0 13.4909091"></polygon>
        <polygon id="path-3" points="0 0 107 0 107 93.4727273 0 93.4727273"></polygon>
        <polygon id="path-5" points="0 0 48.671875 0 48.671875 48.6718689 0 48.6718689"></polygon>
    </defs>
    <g id="1.通用/空状态/好像断开连接了-刷新一下吧" stroke="none" stroke-width="1" fill="none" fill-rule="evenodd">
        <g id="编组" transform="translate(-8.000000, 64.000000)" fill="#4E5C93" opacity="0.100000001">
            <g id="4.背景组件/灰色版/马赛克" transform="translate(51.000000, 51.000000) scale(1, -1) translate(-51.000000, -51.000000) ">
                <g id="编组" transform="translate(15.937500, 16.037109)">
                    <rect id="矩形备份-5" opacity="0.559454055" x="35.1621094" y="23.4082031" width="11.6542969" height="11.6542969"></rect>
                    <rect id="矩形备份" x="23.5078125" y="11.6542969" width="11.6542969" height="11.6542969"></rect>
                    <rect id="矩形备份-7" x="58.5703125" y="11.6542969" width="11.6542969" height="11.6542969"></rect>
                    <rect id="矩形备份-2" x="0" y="35.0625" width="11.6542969" height="11.6542969"></rect>
                    <rect id="矩形备份-9" opacity="0.783365885" x="35.1621094" y="35.0625" width="11.6542969" height="11.6542969"></rect>
                    <rect id="矩形备份-6" opacity="0.461286272" x="23.5078125" y="35.0625" width="11.6542969" height="11.6542969"></rect>
                    <rect id="矩形备份-10" x="58.5703125" y="35.0625" width="11.6542969" height="11.6542969"></rect>
                    <rect id="矩形备份-3" opacity="0.414969308" x="11.7539063" y="58.3710937" width="11.6542969" height="11.6542969"></rect>
                    <rect id="矩形备份-11" opacity="0.414969308" x="35.1621094" y="46.7167969" width="11.6542969" height="11.6542969"></rect>
                    <rect id="矩形备份-12" opacity="0.340680804" x="46.8164062" y="23.4082031" width="11.6542969" height="11.6542969"></rect>
                    <rect id="矩形备份-8" x="11.7539063" y="0" width="11.6542969" height="11.6542969"></rect>
                    <rect id="矩形备份-13" x="46.8164062" y="0" width="11.6542969" height="11.6542969"></rect>
                </g>
            </g>
        </g>
        <g id="编组" transform="translate(44.000000, 46.000000)">
            <g id="分组-copy-3">
                <g id="分组">
                    <mask id="mask-2" fill="white">
                        <use xlink:href="#path-1"></use>
                    </mask>
                    <g id="Clip-2"></g>
                    <path d="M107,13.4909091 L-9.41498893e-05,13.4909091 L-9.41498893e-05,3.80468757 C-9.41498893e-05,1.7035226 1.68613037,-4.75591892e-05 3.76590143,-4.75591892e-05 L103.234004,-4.75591892e-05 C105.313932,-4.75591892e-05 107,1.7035226 107,3.80468757 L107,13.4909091 Z" id="Fill-1" fill="#7A83A4" mask="url(#mask-2)"></path>
                </g>
                <g id="分组" transform="translate(0.000000, 12.527273)">
                    <mask id="mask-4" fill="white">
                        <use xlink:href="#path-3"></use>
                    </mask>
                    <g id="Clip-4"></g>
                    <path d="M103.234004,93.4727273 L3.76590143,93.4727273 C1.68613037,93.4727273 -9.41498894e-05,91.7860096 -9.41498894e-05,89.7052798 L-9.41498894e-05,0 L107,0 L107,89.7052798 C107,91.7860096 105.313932,93.4727273 103.234004,93.4727273" id="Fill-3" fill="#E4EBF7" mask="url(#mask-4)"></path>
                </g>
                <path d="M8.67567568,6.26363636 C8.67567568,7.5940585 7.59664019,8.67272727 6.26560577,8.67272727 C4.93473134,8.67272727 3.85585586,7.5940585 3.85585586,6.26363636 C3.85585586,4.93321423 4.93473134,3.85454545 6.26560577,3.85454545 C7.59664019,3.85454545 8.67567568,4.93321423 8.67567568,6.26363636" id="Fill-5" fill="#A3B5D6"></path>
                <path d="M17.3513514,6.26363636 C17.3513514,7.5940585 16.2724401,8.67272727 14.9413614,8.67272727 C13.6104428,8.67272727 12.5315315,7.5940585 12.5315315,6.26363636 C12.5315315,4.93321423 13.6104428,3.85454545 14.9413614,3.85454545 C16.2724401,3.85454545 17.3513514,4.93321423 17.3513514,6.26363636" id="Fill-7" fill="#E4EBF7"></path>
                <path d="M26.027027,6.26363636 C26.027027,7.5940585 24.9481157,8.67272727 23.6170371,8.67272727 C22.2861185,8.67272727 21.2072072,7.5940585 21.2072072,6.26363636 C21.2072072,4.93321423 22.2861185,3.85454545 23.6170371,3.85454545 C24.9481157,3.85454545 26.027027,4.93321423 26.027027,6.26363636" id="Fill-9" fill="#E4EBF7"></path>
                <path d="M11.7832005,92.5090909 C11.1316206,92.5090909 10.6036036,91.9838885 10.6036036,91.3361095 L10.6036036,23.3366178 C10.6036036,22.6888388 11.1316206,22.1636364 11.7832005,22.1636364 L97.1447275,22.1636364 C97.7961598,22.1636364 98.3243243,22.6888388 98.3243243,23.3366178 L98.3243243,91.3361095 C98.3243243,91.9838885 97.7961598,92.5090909 97.1447275,92.5090909 L11.7832005,92.5090909 Z" id="Fill-11" fill="#FFFFFF"></path>
                <path d="M40.7906663,30.8363636 L18.9750994,30.8363636 C18.0818869,30.8363636 17.3513514,30.185902 17.3513514,29.3909091 C17.3513514,28.5957746 18.0818869,27.9454545 18.9750994,27.9454545 L40.7906663,27.9454545 C41.6837198,27.9454545 42.4144144,28.5957746 42.4144144,29.3909091 C42.4144144,30.185902 41.6837198,30.8363636 40.7906663,30.8363636" id="Fill-1" fill="#E4EBF7"></path>
                <path d="M28.2304426,38.5454545 L19.9679174,38.5454545 C19.0553613,38.5454545 18.3153153,37.8982488 18.3153153,37.1 C18.3153153,36.3016097 19.0553613,35.6545455 19.9679174,35.6545455 L28.2304426,35.6545455 C29.1431606,35.6545455 29.8828829,36.3016097 29.8828829,37.1 C29.8828829,37.8982488 29.1431606,38.5454545 28.2304426,38.5454545" id="Fill-3" fill="#E4EBF7"></path>
            </g>
            <g id="分组" transform="translate(29.882883, 33.727273)">
                <path d="M25.0638513,31.8 C22.404158,31.8 20.2432432,29.8595419 20.2432432,27.4596254 C20.233993,25.0751994 22.388227,23.1355712 25.0547259,23.127411 C25.0578192,23.127411 25.060758,23.1272727 25.0638513,23.1272727 C27.721998,23.1272727 29.8828829,25.0677308 29.8828829,27.4664025 C29.8783975,29.8595419 27.721998,31.7986169 25.0638513,31.8 M36.5411052,26.3707434 C36.4514319,25.878124 35.967107,25.374122 35.4610296,25.2657717 L35.0836912,25.181195 C34.1675727,24.9107514 33.3920313,24.3100698 32.9151052,23.5019089 C32.4332959,22.6853911 32.2904992,21.7203239 32.5160144,20.8046771 L32.634543,20.4583018 C32.7863662,19.9783617 32.5898543,19.3151481 32.1950547,18.9872154 C32.1950547,18.9872154 31.8409486,18.694439 30.8462549,18.131363 C29.8471221,17.5711687 29.4191759,17.4148388 29.4191759,17.4148388 C28.9333712,17.2402103 28.2538662,17.4077787 27.8982802,17.7766309 L27.6366589,18.0511088 C26.9451678,18.6951594 26.0243141,19.0529172 25.0675023,19.0493151 C24.1053634,19.0517646 23.1797745,18.690981 22.4853239,18.042608 L22.233765,17.7751901 C21.8839501,17.4063379 21.2000057,17.243092 20.7128692,17.4148388 C20.7128692,17.4148388 20.279152,17.5711687 19.2814989,18.131363 C18.282514,18.6986174 17.9312194,18.9913938 17.9312194,18.9913938 C17.5378996,19.3165889 17.3412397,19.9727424 17.4930629,20.4583018 L17.6015292,20.8089995 C17.8245288,21.7232055 17.6818801,22.6861115 17.2024383,23.5019089 C16.7264,24.3166976 15.9443477,24.9202609 15.0208305,25.1855175 L14.6579937,25.2657717 C14.1606469,25.3783004 13.6705509,25.8753864 13.577918,26.3707434 C13.577918,26.3707434 13.4954955,26.8156714 13.4954955,27.944705 C13.4954955,29.0737385 13.577918,29.5170816 13.577918,29.5170816 C13.6675914,30.0154643 14.1519163,30.513703 14.6579937,30.6221974 L15.0122479,30.7024516 C15.9375408,30.9684286 16.7210729,31.5737209 17.1966673,32.3916795 C17.6940141,33.2406159 17.8140225,34.2062594 17.5957581,35.0889113 L17.4930629,35.4309641 C17.3412397,35.9110483 17.5378996,36.5741178 17.9325511,36.9020504 C17.9325511,36.9020504 18.2868053,37.1948269 19.2814989,37.7579028 C20.2804838,38.3211229 20.7099097,38.4744271 20.7099097,38.4744271 C21.1942347,38.6490555 21.8752195,38.4814871 22.2309534,38.1126349 L22.4795528,37.8508363 C23.9252768,36.5036612 26.2038088,36.5051021 27.648201,37.8535739 L27.8968004,38.1169574 C28.2467633,38.4842247 28.9305597,38.6490555 29.4178441,38.4773087 C29.4178441,38.4773087 29.8515613,38.3211229 30.8505462,37.7607845 C31.8480514,37.1977085 32.1980143,36.904788 32.1980143,36.904788 C32.5926658,36.5810337 32.7893257,35.9195492 32.6375025,35.4337016 L32.5290362,35.0791136 C32.3051488,34.1677893 32.4479455,33.207765 32.9281271,32.3958579 C33.406533,31.5806368 34.1887333,30.9757768 35.1126944,30.70663 L35.4682804,30.6263758 C35.9656272,30.513703 36.4557232,30.0169052 36.5483561,29.52126 C36.5483561,29.52126 36.6306306,29.0764761 36.6306306,27.9488834 C36.622048,26.8185531 36.5411052,26.3707434 36.5411052,26.3707434" id="Fill-1" fill="#4E5C93"></path>
                <path d="M28.2391451,0.266553547 C28.9673398,-0.222788135 29.9478753,-0.0193674067 30.4292323,0.720906461 C30.9029488,1.44942995 30.7166686,2.42640086 30.0165693,2.92363987 L29.9822931,2.94732237 L29.1860129,3.48227497 L29.3426963,3.51234924 C40.5111573,5.73995193 48.9681077,15.6533934 49.158869,27.6089685 L49.1621622,28.0220305 C49.1621622,41.8171743 38.1566977,53 24.5810811,53 C11.0055615,53 0,41.8171247 0,28.0220305 C0,18.0660886 5.78579569,9.18349627 14.5794842,5.1988279 C15.3767774,4.83755184 16.3112046,5.20173483 16.6665857,6.01225336 C17.0219668,6.82277189 16.6637262,7.7726991 15.866433,8.13397515 C8.20244665,11.6067436 3.16108746,19.3464463 3.16108746,28.0220305 C3.16108746,40.0420077 12.7510502,49.7864772 24.5810811,49.7864772 C36.4112058,49.7864772 46.0010747,40.0420605 46.0010747,28.0220305 C46.0010747,16.0020005 36.4112058,6.25758379 24.5810811,6.25758379 C23.0297487,6.25758379 22.4146215,4.23004562 23.6708653,3.33714502 L23.709507,3.31043799 L28.2391451,0.266553547 Z" id="Stroke-7" fill="#A3B5D6" fill-rule="nonzero"></path>
                <path d="M23.5767938,3.33241767 C24.1558574,2.75355087 25.0887086,2.74390309 25.6795651,3.30347433 L25.7093105,3.33241767 L29.4412242,7.06306306 C30.0301024,7.65174117 30.0301024,8.60617695 29.4412242,9.19485506 C28.8621606,9.77372186 27.9293094,9.78336964 27.3384529,9.2237984 L27.3087075,9.19485506 L23.5767938,5.46420967 C22.9879156,4.87553156 22.9879156,3.92109577 23.5767938,3.33241767 Z" id="Stroke-9" fill="#A3B5D6" fill-rule="nonzero"></path>
                <path d="M57.8379103,47.2181818 C55.1759689,47.2181818 53.018018,49.3753309 53.018018,52.0363636 C53.018018,54.6973964 55.1759689,56.8545455 57.8379103,56.8545455 C60.4997336,56.8545455 62.6576577,54.6973696 62.6576577,52.0363636 C62.6576577,49.3753577 60.4997336,47.2181818 57.8379103,47.2181818 Z M58.3198954,49.1454545 C60.1831435,49.1454545 61.6936937,50.655481 61.6936937,52.5181818 C61.6936937,54.3808826 60.1831435,55.8909091 58.3198954,55.8909091 C56.4565149,55.8909091 54.9459459,54.3809014 54.9459459,52.5181818 C54.9459459,50.6554622 56.4565149,49.1454545 58.3198954,49.1454545 Z" id="Stroke-11" fill="#E4EBF7" fill-rule="nonzero"></path>
                <path d="M61.2461828,49.2002338 C61.6616515,49.0382959 62.128292,49.2475589 62.2884535,49.6676356 C62.5309638,50.3036996 62.6576577,50.9939104 62.6576577,51.7032676 C62.6576577,52.2839585 62.5727584,52.8525232 62.4084234,53.3892958 C62.2767542,53.8193711 61.8251946,54.0600933 61.3998369,53.9269637 C60.9744792,53.7938342 60.7363976,53.3372664 60.8680668,52.907191 C60.9845591,52.5266885 61.0451899,52.1206482 61.0451899,51.7032676 C61.0451899,51.2224606 60.9647346,50.7574396 60.8116713,50.3292421 L60.783908,50.2540643 C60.6237466,49.8339876 60.830714,49.3621716 61.2461828,49.2002338 Z" id="Stroke-13" fill="#E4EBF7" fill-rule="nonzero"></path>
            </g>
        </g>
        <g id="编组" transform="translate(115.000000, 27.000000)">
            <g id="分组" transform="translate(3.664063, 3.664069)">
                <g>
                    <mask id="mask-6" fill="white">
                        <use xlink:href="#path-5"></use>
                    </mask>
                    <g id="Clip-2"></g>
                    <path d="M48.671875,24.3359375 C48.671875,37.7763107 37.7763107,48.671875 24.3359375,48.671875 C10.8955643,48.671875 0,37.7763107 0,24.3359375 C0,10.8955643 10.8955643,0 24.3359375,0 C37.7763107,0 48.671875,10.8955643 48.671875,24.3359375" id="Fill-1" fill="#E4EBF7" mask="url(#mask-6)"></path>
                </g>
                <path d="M41.2795359,24.3058157 C41.2795359,33.7140891 33.6526531,41.3409719 24.2443796,41.3409719 C14.8361062,41.3409719 7.20922337,33.7140891 7.20922337,24.3058157 C7.20922337,14.8975423 14.8361062,7.27065944 24.2443796,7.27065944 C33.6526531,7.27065944 41.2795359,14.8975423 41.2795359,24.3058157" id="Fill-3" fill="#A3B5D6"></path>
                <path d="M33.4619141,24.3359375 C33.4619141,29.3760927 29.3760927,33.4619141 24.3359375,33.4619141 C19.2957823,33.4619141 15.2099609,29.3760927 15.2099609,24.3359375 C15.2099609,19.2957823 19.2957823,15.2099609 24.3359375,15.2099609 C29.3760927,15.2099609 33.4619141,19.2957823 33.4619141,24.3359375" id="Fill-5" fill="#253368"></path>
                <line x1="24.3359375" y1="24.3359375" x2="42.4478373" y2="8.78290068" id="Stroke-7" stroke="#FFFFFF" stroke-width="0.66" stroke-linecap="round" stroke-linejoin="round"></line>
                <path d="M26.7695313,24.3359375 C26.7695313,25.6799302 25.6799302,26.7695313 24.3359375,26.7695313 C22.9919448,26.7695313 21.9023438,25.6799302 21.9023438,24.3359375 C21.9023438,22.9918637 22.9919448,21.9023438 24.3359375,21.9023438 C25.6799302,21.9023438 26.7695313,22.9918637 26.7695313,24.3359375" id="Fill-9" fill="#FFFFFF"></path>
                <path d="M39.0654766,13.2615528 C39.0654766,14.2696081 38.2482758,15.0867481 37.2402813,15.0867481 C36.2322868,15.0867481 35.415086,14.2696081 35.415086,13.2615528 C35.415086,12.2534974 36.2322868,11.4363575 37.2402813,11.4363575 C38.2482758,11.4363575 39.0654766,12.2534974 39.0654766,13.2615528" id="Fill-11" fill="#FFFFFF"></path>
                <path d="M33.4010742,18.6778259 C33.4010742,19.8538905 32.4476733,20.8072205 31.2716797,20.8072205 C30.0956861,20.8072205 29.1422852,19.8538905 29.1422852,18.6778259 C29.1422852,17.5018323 30.0956861,16.5484314 31.2716797,16.5484314 C32.4476733,16.5484314 33.4010742,17.5018323 33.4010742,18.6778259" id="Fill-13" fill="#FFFFFF"></path>
            </g>
        </g>
    </g>
</svg>