<?xml version="1.0" encoding="UTF-8"?>
<svg width="180px" height="180px" viewBox="0 0 180 180" version="1.1" xmlns="http://www.w3.org/2000/svg" xmlns:xlink="http://www.w3.org/1999/xlink">
    <title>1.通用/空状态/该模块功能正在开发中 敬请期待</title>
    <defs>
        <polygon id="path-1" points="0 0 8 0 8 16 0 16"></polygon>
        <polygon id="path-3" points="0 0 8 0 8 16 0 16"></polygon>
    </defs>
    <g id="1.通用/空状态/该模块功能正在开发中-敬请期待" stroke="none" stroke-width="1" fill="none" fill-rule="evenodd">
        <g id="3.通用组件/灰色版/代码详情页01" transform="translate(19.000000, 59.000000)" fill-rule="nonzero">
            <g id="资源-29-copy-3">
                <rect id="矩形" fill="#E4EBF7" x="2.13162821e-14" y="4" width="118" height="87" rx="3.47132634"></rect>
                <rect id="矩形" fill="#7A83A4" x="11" y="19" width="97" height="64" rx="1.31962435"></rect>
                <g id="分组" transform="translate(24.000000, 28.000000)">
                    <rect id="矩形-copy-20" fill="#A3B5D6" x="-1.91846539e-13" y="11" width="65" height="3"></rect>
                    <rect id="矩形-copy-20" fill="#E4EBF7" x="-2.13162821e-13" y="21" width="32" height="3"></rect>
                    <rect id="矩形-copy-20" fill="#A3B5D6" x="-2.13162821e-13" y="43" width="32" height="3"></rect>
                    <rect id="矩形-copy-20" fill="#A3B5D6" x="-1.72306613e-13" y="6.48370246e-14" width="19" height="3"></rect>
                    <rect id="矩形-copy-21" fill="#E4EBF7" x="39" y="21" width="10" height="3"></rect>
                    <rect id="矩形-copy-20" fill="#A3B5D6" x="-3.19744231e-13" y="32" width="49" height="3"></rect>
                </g>
                <path d="M3.1623025,-1.19904087e-13 L114.837698,-1.19904087e-13 C116.584189,-1.19904087e-13 118,1.34989523 118,3.01507538 L118,12 L-4.97379915e-14,12 L-4.97379915e-14,3.01507538 C-4.97379915e-14,1.34989523 1.41581105,-1.19904087e-13 3.1623025,-1.19904087e-13 Z" id="路径" fill="#7A83A4"></path>
                <ellipse id="椭圆形" fill="#A3B5D6" cx="7.5" cy="6" rx="2.5" ry="2"></ellipse>
                <ellipse id="椭圆形" fill="#E4EBF7" cx="15.5" cy="6" rx="2.5" ry="2"></ellipse>
                <ellipse id="椭圆形" fill="#E4EBF7" cx="23.5" cy="6" rx="2.5" ry="2"></ellipse>
            </g>
        </g>
        <g id="编组-3" transform="translate(94.000000, 29.000000)">
            <g id="编组" transform="translate(0.000000, 13.000000)">
                <g id="资源-19" transform="translate(17.697266, 4.113281)">
                    <path d="M46.6756172,23.154293 C46.6756172,10.4262188 36.2273438,0 23.3382891,0 C10.4492344,0 0,10.4262188 0,23.154293 C0,28.1917969 2.70792187,34.6986914 7.05616406,39.496043 C11.3678906,44.2497305 12.5959688,52.2525938 12.5959688,58.6341914 L12.5959688,61.136332 L34.0806094,61.136332 L34.0806094,58.6550742 C34.0806094,52.2734766 35.3086875,44.2858008 39.5983125,39.5169258 C43.9609688,34.6702148 46.6756172,27.5852461 46.6756172,23.154293 Z" id="路径" fill="#E4EBF7" fill-rule="nonzero"></path>
                    <path d="M42.83475,23.0916445 C42.83475,12.4603945 34.1084766,3.74941406 23.3382891,3.74941406 C12.5681016,3.74941406 3.84375,12.4594453 3.84375,23.0916445 C3.84375,27.3033281 6.10483594,32.7366562 9.73814063,36.7442578 C13.3397344,40.7157891 16.0140234,47.4011367 16.0140234,52.7319492 L16.0140234,54.8202305 L30.6635156,54.8202305 L30.6635156,52.7499844 C30.6635156,47.4182227 33.3378047,40.7452148 36.9221016,36.7613437 C40.5669375,32.7129258 42.83475,26.7945469 42.83475,23.0925937 L42.83475,23.0916445 Z" id="路径" fill="#A3B5D6" fill-rule="nonzero"></path>
                    <path d="M29.2615078,72.8117227 L17.4150703,72.8117227 C17.0009062,72.8117227 16.6232578,72.5459414 16.3983984,72.1093008 L14.7869062,67.9906406 L31.8915937,67.9906406 L30.2801016,72.1093008 C30.0542812,72.5459414 29.6775937,72.8117227 29.2634297,72.8117227 L29.2615078,72.8117227 Z" id="路径" fill="#253368" fill-rule="nonzero"></path>
                    <rect id="矩形" fill="#4E5C93" fill-rule="nonzero" x="12.1702734" y="51.6175664" width="22.3360313" height="18.1462148" rx="2.36544"></rect>
                    <line x1="12.1991016" y1="56.8721328" x2="24.7825781" y2="56.8721328" id="路径" stroke="#FFFFFF" stroke-width="0.78816" stroke-linecap="round" stroke-linejoin="round"></line>
                    <line x1="12.1991016" y1="64.939543" x2="24.7825781" y2="64.939543" id="路径" stroke="#FFFFFF" stroke-width="0.78816" stroke-linecap="round" stroke-linejoin="round"></line>
                    <line x1="21.8507578" y1="60.9053633" x2="34.4342344" y2="60.9053633" id="路径" stroke="#FFFFFF" stroke-width="0.78816" stroke-linecap="round" stroke-linejoin="round"></line>
                    <path d="M24.9300832,13.8484026 L16.1327687,27.0853218 C15.6594527,27.8029624 16.1685658,28.6854237 17.0213301,28.6854237 L20.9621833,28.6854237 L16.116859,37.7261173 C15.7557069,38.4571643 16.6872247,39.135374 17.2583859,38.5573185 L30.4356636,25.4804883 C31.1078519,24.7999127 30.6305584,23.6374928 29.6791534,23.6374928 L23.7201442,23.6374928 L26.2132072,14.4256695 C26.408102,13.6394194 25.3731706,13.178079 24.9300832,13.8484026 Z" id="路径" fill="#E4EBF7" fill-rule="nonzero"></path>
                </g>
            </g>
            <path d="M44.4283051,10 L37.5716102,10 C36.7072034,10 36,9.29850219 36,8.44125607 L36,1.55882798 C36,0.701497806 36.7072034,-2.30926389e-14 37.5716102,-2.30926389e-14 L44.4283051,-2.30926389e-14 C45.2927119,-2.30926389e-14 46,0.701497806 46,1.55882798 L46,8.44125607 C46,9.29850219 45.2927119,10 44.4283051,10" id="Fill-3" fill="#E4EBF7"></path>
            <path d="M78.4283051,42 L71.5716102,42 C70.7072034,42 70,41.2985022 70,40.4412561 L70,33.558828 C70,32.7014978 70.7072034,32 71.5716102,32 L78.4283051,32 C79.2927119,32 80,32.7014978 80,33.558828 L80,40.4412561 C80,41.2985022 79.2927119,42 78.4283051,42" id="Fill-3备份-3" fill="#E4EBF7"></path>
            <path d="M20.4116684,18.3124224 L13.8270537,18.2823284 C12.9969474,18.2785364 12.3144727,17.5456338 12.3103987,16.6538016 L12.2776723,9.49369758 C12.2736162,8.60177788 12.9494233,7.87508009 13.7795296,7.87885733 L20.3641443,7.90895132 C21.1942506,7.91274334 21.8768066,8.64564627 21.880881,9.53756597 L21.9136075,16.69767 C21.9176631,17.5895022 21.2417747,18.3161996 20.4116684,18.3124224" id="Fill-3备份" fill="#E4EBF7" transform="translate(17.095640, 13.095640) rotate(-45.000000) translate(-17.095640, -13.095640) "></path>
            <path d="M68.4116684,18.3124224 L61.8270537,18.2823284 C60.9969474,18.2785364 60.3144727,17.5456338 60.3103987,16.6538016 L60.2776723,9.49369758 C60.2736162,8.60177788 60.9494233,7.87508009 61.7795296,7.87885733 L68.3641443,7.90895132 C69.1942506,7.91274334 69.8768066,8.64564627 69.880881,9.53756597 L69.9136075,16.69767 C69.9176631,17.5895022 69.2417747,18.3161996 68.4116684,18.3124224" id="Fill-3备份-2" fill="#E4EBF7" transform="translate(65.095640, 13.095640) scale(-1, 1) rotate(-45.000000) translate(-65.095640, -13.095640) "></path>
            <path d="M70.4116684,66.3124224 L63.8270537,66.2823284 C62.9969474,66.2785364 62.3144727,65.5456338 62.3103987,64.6538016 L62.2776723,57.4936976 C62.2736162,56.6017779 62.9494233,55.8750801 63.7795296,55.8788573 L70.3641443,55.9089513 C71.1942506,55.9127433 71.8768066,56.6456463 71.880881,57.537566 L71.9136075,64.69767 C71.9176631,65.5895022 71.2417747,66.3161996 70.4116684,66.3124224" id="Fill-3备份-4" fill="#E4EBF7" transform="translate(67.095640, 61.095640) scale(-1, -1) rotate(-45.000000) translate(-67.095640, -61.095640) "></path>
        </g>
        <g id="编组" transform="translate(8.000000, 35.000000)">
            <polygon id="Fill-1" fill="#CED0DB" points="16.2317724 -4.56523708e-13 10 20 13.7676349 20 20 -4.56523708e-13"></polygon>
            <g transform="translate(0.000000, 2.000000)">
                <g transform="translate(-0.000000, 0.000000)">
                    <mask id="mask-2" fill="white">
                        <use xlink:href="#path-1"></use>
                    </mask>
                    <g id="Clip-3"></g>
                    <path d="M7.60599207,0 L3.18208936,0 L0.393876815,0 C0.176221851,0 -0.000131117448,0.168671866 -0.000131117448,0.376846808 L-0.000131117448,3.04361798 L-0.000131117448,12.956382 L-0.000131117448,15.6231532 C-0.000131117448,15.8313281 0.176221851,16 0.393876815,16 L3.18208936,16 L7.60599207,16 C7.82364703,16 8,15.8313281 8,15.6231532 L8,13.3332288 C8,13.1250539 7.82364703,12.956382 7.60599207,12.956382 L3.18208936,12.956382 L3.18208936,3.04361798 L7.60599207,3.04361798 C7.82364703,3.04361798 8,2.87494611 8,2.66739821 L8,0.376846808 C8,0.168671866 7.82364703,0 7.60599207,0" id="Fill-2" fill="#E4E6EF" mask="url(#mask-2)"></path>
                </g>
                <g transform="translate(23.000000, 0.000000)">
                    <mask id="mask-4" fill="white">
                        <use xlink:href="#path-3"></use>
                    </mask>
                    <g id="Clip-5"></g>
                    <path d="M7.60631018,0 L4.81802909,0 L0.394017619,0 C0.176357304,0 0,0.168671866 0,0.376846808 L0,2.66739821 C0,2.87494611 0.176357304,3.04361798 0.394017619,3.04361798 L4.81802909,3.04361798 L4.81802909,12.956382 L0.394017619,12.956382 C0.176357304,12.956382 0,13.1250539 0,13.3332288 L0,15.6231532 C0,15.8313281 0.176357304,16 0.394017619,16 L4.81802909,16 L7.60631018,16 C7.8239705,16 8.0003278,15.8313281 8.0003278,15.6231532 L8.0003278,13.3332288 L8.0003278,2.66739821 L8.0003278,0.376846808 C8.0003278,0.168671866 7.8239705,0 7.60631018,0" id="Fill-4" fill="#E4E6EF" mask="url(#mask-4)"></path>
                </g>
            </g>
        </g>
    </g>
</svg>