<?xml version="1.0" encoding="UTF-8"?>
<svg width="180px" height="180px" viewBox="0 0 180 180" version="1.1" xmlns="http://www.w3.org/2000/svg" xmlns:xlink="http://www.w3.org/1999/xlink">
    <title>1.通用/空状态/暂无相关数据</title>
    <defs>
        <linearGradient x1="0%" y1="89.6062836%" x2="0%" y2="0%" id="linearGradient-1">
            <stop stop-color="#92B5FC" stop-opacity="0" offset="0%"></stop>
            <stop stop-color="#4E5C93" offset="100%"></stop>
        </linearGradient>
        <linearGradient x1="0%" y1="89.6062836%" x2="0%" y2="0%" id="linearGradient-2">
            <stop stop-color="#92B5FC" stop-opacity="0" offset="0%"></stop>
            <stop stop-color="#4E5C93" offset="100%"></stop>
        </linearGradient>
        <linearGradient x1="0%" y1="89.6062836%" x2="0%" y2="0%" id="linearGradient-3">
            <stop stop-color="#92B5FC" stop-opacity="0" offset="0%"></stop>
            <stop stop-color="#4E5C93" offset="100%"></stop>
        </linearGradient>
        <linearGradient x1="0%" y1="89.6062836%" x2="0%" y2="0%" id="linearGradient-4">
            <stop stop-color="#92B5FC" stop-opacity="0" offset="0%"></stop>
            <stop stop-color="#4E5C93" offset="100%"></stop>
        </linearGradient>
        <polygon id="path-5" points="0 0 46 0 46 46 0 46"></polygon>
    </defs>
    <g id="1.通用/空状态/暂无相关数据" stroke="none" stroke-width="1" fill="none" fill-rule="evenodd">
        <g id="编组" transform="translate(32.000000, 16.000000)" opacity="0.100000001">
            <g id="编组-2" transform="translate(15.240234, 10.757813)">
                <circle id="椭圆形备份-4" fill="#4E5C93" cx="4.47309844" cy="14.5908211" r="4.47309844"></circle>
                <line x1="4.44782223" y1="14.5908211" x2="4.44782223" y2="81.9814292" id="直线-2" stroke="url(#linearGradient-1)" stroke-width="0.64152" stroke-linecap="square"></line>
                <circle id="椭圆形备份-4" fill="#4E5C93" cx="25.3475578" cy="28.2231211" r="4.47309844"></circle>
                <line x1="25.3222816" y1="28.2231211" x2="25.3222816" y2="87.7477725" id="直线-2" stroke="url(#linearGradient-2)" stroke-width="0.64152" stroke-linecap="square"></line>
                <circle id="椭圆形备份-4" fill="#4E5C93" cx="46.2220172" cy="4.47309844" r="4.47309844"></circle>
                <line x1="46.196741" y1="4.47309844" x2="46.196741" y2="78.2456821" id="直线-2" stroke="url(#linearGradient-3)" stroke-width="0.64152" stroke-linecap="square"></line>
                <circle id="椭圆形备份-4" fill="#4E5C93" cx="67.0964766" cy="14.5908211" r="4.47309844"></circle>
                <line x1="67.0712004" y1="14.5908211" x2="67.0712004" y2="90.3352931" id="直线-2" stroke="url(#linearGradient-4)" stroke-width="0.64152" stroke-linecap="square"></line>
            </g>
        </g>
        <g id="3.通用组件/灰色版/箱子" transform="translate(32.000000, 74.000000)" fill-rule="nonzero">
            <g id="资源-20">
                <path d="M9,30 L101,30 L101,74.5196375 C101,76.4417886 99.4543439,78 97.5476805,78 L12.4523195,78 C10.5456561,78 9,76.4417886 9,74.5196375 L9,30 Z" id="路径" fill="#A3B5D6"></path>
                <path d="M9.15787986,14 L0.224598456,33.7110043 C-0.114964507,34.4222458 -0.0670178231,35.2584682 0.351599073,35.9259804 C0.770215969,36.5934927 1.50097535,36.9989685 2.287226,37 L107.710253,37 C108.513787,37 109.258459,36.5773232 109.672521,35.8866513 C110.086582,35.1959794 110.109458,34.3381872 109.732801,33.626303 L100.984169,14 L9.15787986,14 Z" id="路径" fill="#E4EBF7"></path>
                <polygon id="路径" fill="#A3B5D6" points="82.4700812 0 101 14 9 14 27.430974 0"></polygon>
                <polygon id="路径" fill="#7A83A4" points="27 0 27 14 9 14"></polygon>
                <polygon id="路径" fill="#7A83A4" points="82 0 82 13.9897156 100 14"></polygon>
            </g>
        </g>
        <g id="分组" transform="translate(106.000000, 47.000000)">
            <g>
                <mask id="mask-6" fill="white">
                    <use xlink:href="#path-5"></use>
                </mask>
                <g id="Clip-2"></g>
                <path d="M22.9999949,-5.13392914e-06 C10.2974246,-5.13392914e-06 -5.13392863e-06,10.2974246 -5.13392863e-06,22.9999949 C-5.13392863e-06,35.7025189 10.2974246,45.9999949 22.9999949,45.9999949 C35.7025703,45.9999949 45.9999949,35.7025189 45.9999949,22.9999949 C45.9999949,10.2974246 35.7025703,-5.13392914e-06 22.9999949,-5.13392914e-06" id="Fill-1" fill="#4E5C93" mask="url(#mask-6)"></path>
            </g>
            <path d="M28.5540431,13.6214439 C29.7348603,14.6921801 30.3404255,16.1606834 30.3404255,17.9962745 C30.3404255,19.4953052 29.9468031,20.7496106 29.2201348,21.7285622 C28.9475653,22.0650721 28.0998441,22.8605556 26.6465075,24.1148104 C26.1014687,24.6043115 25.677583,25.1244413 25.4050636,25.6750983 C25.0720178,26.2869621 24.9206014,26.9599818 24.9206014,27.7248367 L24.9206014,28.4508111 C24.9206014,28.7541104 24.6772429,29 24.3771158,29 L22.2243178,29 C21.9241907,29 21.6808323,28.7541104 21.6808323,28.4508111 L21.6808323,27.7248367 C21.6808323,26.5928939 21.862562,25.6138917 22.2561844,24.8184588 C22.6800701,23.9619204 23.830624,22.7075644 25.7078463,21.0249645 L26.2226218,20.4437294 C26.7675604,19.7400304 27.0401299,19.0058041 27.0401299,18.2103711 C27.0401299,17.139635 26.7372972,16.313624 26.1620453,15.7017097 C25.5564299,15.0898966 24.7087087,14.7839647 23.6186311,14.7839647 C22.2561844,14.7839647 21.2569967,15.2122592 20.6514314,16.0688988 C20.1777918,16.7069867 19.9099823,17.5992162 19.8479527,18.7053905 C19.8317187,18.994717 19.592519,19.2199007 19.3057197,19.2199007 L17.182283,19.2199007 C16.8721851,19.2199007 16.6228141,18.9578614 16.639048,18.6449939 C16.7408106,16.6850657 17.374184,15.1304479 18.5622664,13.9579538 C19.8339233,12.6424923 21.5899925,12 23.8003608,12 C25.7684228,12 27.3428625,12.5200791 28.5540431,13.6214439" id="Fill-3" fill="#FFFFFF"></path>
            <path d="M23.3670213,34 L22.6329787,34 C22.0248703,34 21.5319149,33.4963281 21.5319149,32.875 L21.5319149,32.125 C21.5319149,31.5036719 22.0248703,31 22.6329787,31 L23.3670213,31 C23.9751297,31 24.4680851,31.5036719 24.4680851,32.125 L24.4680851,32.875 C24.4680851,33.4963281 23.9751297,34 23.3670213,34" id="Fill-5" fill="#FFFFFF"></path>
        </g>
    </g>
</svg>