<?xml version="1.0" encoding="UTF-8"?>
<svg width="180px" height="180px" viewBox="0 0 180 180" version="1.1" xmlns="http://www.w3.org/2000/svg" xmlns:xlink="http://www.w3.org/1999/xlink">
    <title>1.通用/空状态/加载失败</title>
    <defs>
        <polygon id="path-1" points="0 0 107 0 107 13.4909091 0 13.4909091"></polygon>
        <polygon id="path-3" points="0 0 107 0 107 93.4727273 0 93.4727273"></polygon>
        <polygon id="path-5" points="0 0 45.9999949 0 45.9999949 45.9999949 0 45.9999949"></polygon>
    </defs>
    <g id="1.通用/空状态/加载失败" stroke="none" stroke-width="1" fill="none" fill-rule="evenodd">
        <g id="编组" transform="translate(-8.000000, 86.000000)" opacity="0.100000001">
            <g id="4.背景组件/灰色版/蜂窝结构" transform="translate(41.000000, 41.000000) scale(-1, 1) translate(-41.000000, -41.000000) ">
                <g id="编组" transform="translate(17.056641, 9.969727)">
                    <polygon id="Fill-1" fill="#4E5C93" points="9.56841375 0 0.639742509 4.50108948 0.080078125 14.4707368 8.44916437 19.9394531 17.377915 15.4383636 17.9375 5.46871633"></polygon>
                    <polygon id="Fill-2" fill="#4E5C93" points="30.6690419 23.4795437 30.109375 33.4493099 38.4785778 38.9179688 47.4072888 34.4168614 47.9667969 24.4483632 47.9667969 24.4470952 39.5977528 18.9785156"></polygon>
                    <polygon id="Fill-3" fill="#4E5C93" points="0 42.747169 0.793874766 52.7169352 9.84266312 57.015625 18.0976562 51.3447073 17.3037815 41.374941 8.25499313 37.0761719"></polygon>
                    <g opacity="0.78297061" transform="translate(18.818359, 7.568905)" fill="#4E5C93">
                        <polygon id="Fill-4" points="3.91986562 44.9722668 0 47.6644954 0.37705692 52.3975291 4.67374097 54.438334 8.59360659 51.7461054 8.21670866 47.0130717"></polygon>
                        <polygon id="Fill-6" points="17.7107841 0 13.4628321 2.14018814 13.1965947 6.88075681 17.1783094 9.48105804 21.426182 7.34079058 21.6924988 2.60030122"></polygon>
                        <polygon id="Fill-8" points="26.8593631 4.75897003 24.7000505 5.84687058 24.5647456 8.25657505 26.5886739 9.57829966 28.7479866 8.49039911 28.8832915 6.08077395"></polygon>
                        <polygon id="Fill-10" opacity="0.417480469" transform="translate(5.163575, 39.497408) rotate(-11.000000) translate(-5.163575, -39.497408) " points="5.3395662 36.3392478 2.51053743 37.7639445 2.33462532 40.9221049 4.987583 42.6555685 7.81661177 41.2308718 7.99252388 38.0727114"></polygon>
                    </g>
                    <line x1="9.04882812" y1="9.9296875" x2="39.078125" y2="28.9882813" id="Stroke-12" stroke="#4E5C93" stroke-width="0.7128"></line>
                    <line x1="11.4511719" y1="45.0039062" x2="41.640625" y2="26.1855469" id="Stroke-13" stroke="#4E5C93" stroke-width="0.7128"></line>
                </g>
            </g>
        </g>
        <g id="分组-copy-2" transform="translate(44.000000, 45.000000)">
            <g id="分组">
                <mask id="mask-2" fill="white">
                    <use xlink:href="#path-1"></use>
                </mask>
                <g id="Clip-2"></g>
                <path d="M107,13.4909091 L-9.41498893e-05,13.4909091 L-9.41498893e-05,3.80468757 C-9.41498893e-05,1.7035226 1.68613037,-4.75591892e-05 3.76590143,-4.75591892e-05 L103.234004,-4.75591892e-05 C105.313932,-4.75591892e-05 107,1.7035226 107,3.80468757 L107,13.4909091 Z" id="Fill-1" fill="#7A83A4" mask="url(#mask-2)"></path>
            </g>
            <g id="分组" transform="translate(0.000000, 12.527273)">
                <mask id="mask-4" fill="white">
                    <use xlink:href="#path-3"></use>
                </mask>
                <g id="Clip-4"></g>
                <path d="M103.234004,93.4727273 L3.76590143,93.4727273 C1.68613037,93.4727273 -9.41498894e-05,91.7860096 -9.41498894e-05,89.7052798 L-9.41498894e-05,0 L107,0 L107,89.7052798 C107,91.7860096 105.313932,93.4727273 103.234004,93.4727273" id="Fill-3" fill="#E4EBF7" mask="url(#mask-4)"></path>
            </g>
            <path d="M8.67567568,6.26363636 C8.67567568,7.5940585 7.59664019,8.67272727 6.26560577,8.67272727 C4.93473134,8.67272727 3.85585586,7.5940585 3.85585586,6.26363636 C3.85585586,4.93321423 4.93473134,3.85454545 6.26560577,3.85454545 C7.59664019,3.85454545 8.67567568,4.93321423 8.67567568,6.26363636" id="Fill-5" fill="#A3B5D6"></path>
            <path d="M17.3513514,6.26363636 C17.3513514,7.5940585 16.2724401,8.67272727 14.9413614,8.67272727 C13.6104428,8.67272727 12.5315315,7.5940585 12.5315315,6.26363636 C12.5315315,4.93321423 13.6104428,3.85454545 14.9413614,3.85454545 C16.2724401,3.85454545 17.3513514,4.93321423 17.3513514,6.26363636" id="Fill-7" fill="#E4EBF7"></path>
            <path d="M26.027027,6.26363636 C26.027027,7.5940585 24.9481157,8.67272727 23.6170371,8.67272727 C22.2861185,8.67272727 21.2072072,7.5940585 21.2072072,6.26363636 C21.2072072,4.93321423 22.2861185,3.85454545 23.6170371,3.85454545 C24.9481157,3.85454545 26.027027,4.93321423 26.027027,6.26363636" id="Fill-9" fill="#E4EBF7"></path>
            <path d="M11.7832005,92.5090909 C11.1316206,92.5090909 10.6036036,91.9838885 10.6036036,91.3361095 L10.6036036,23.3366178 C10.6036036,22.6888388 11.1316206,22.1636364 11.7832005,22.1636364 L97.1447275,22.1636364 C97.7961598,22.1636364 98.3243243,22.6888388 98.3243243,23.3366178 L98.3243243,91.3361095 C98.3243243,91.9838885 97.7961598,92.5090909 97.1447275,92.5090909 L11.7832005,92.5090909 Z" id="Fill-11" fill="#FFFFFF"></path>
            <path d="M40.7906663,30.8363636 L18.9750994,30.8363636 C18.0818869,30.8363636 17.3513514,30.185902 17.3513514,29.3909091 C17.3513514,28.5957746 18.0818869,27.9454545 18.9750994,27.9454545 L40.7906663,27.9454545 C41.6837198,27.9454545 42.4144144,28.5957746 42.4144144,29.3909091 C42.4144144,30.185902 41.6837198,30.8363636 40.7906663,30.8363636" id="Fill-1" fill="#E4EBF7"></path>
            <path d="M28.2304426,38.5454545 L19.9679174,38.5454545 C19.0553613,38.5454545 18.3153153,37.8982488 18.3153153,37.1 C18.3153153,36.3016097 19.0553613,35.6545455 19.9679174,35.6545455 L28.2304426,35.6545455 C29.1431606,35.6545455 29.8828829,36.3016097 29.8828829,37.1 C29.8828829,37.8982488 29.1431606,38.5454545 28.2304426,38.5454545" id="Fill-3" fill="#E4EBF7"></path>
            <g id="分组-2" transform="translate(33.738739, 37.581818)" fill-rule="nonzero">
                <path d="M20.2432116,0 C9.06319848,0 0,9.06013256 0,20.2363636 C0,31.4125947 9.06319848,40.4727273 20.2432116,40.4727273 C31.4232246,40.4727273 40.4864231,31.4125947 40.4864231,20.2363636 C40.4864231,9.06013256 31.4232246,0 20.2432116,0 Z M20.7252252,6.74545455 C28.4447689,6.74545455 34.7027027,13.0012616 34.7027027,20.7181818 C34.7027027,28.435102 28.4447689,34.6909091 20.7252252,34.6909091 C13.0056815,34.6909091 6.74774775,28.435102 6.74774775,20.7181818 C6.74774775,13.0012616 13.0056815,6.74545455 20.7252252,6.74545455 Z" id="Stroke-5" fill="#A3B5D6"></path>
                <path d="M34.5861281,9.92389571 C36.1435969,9.19737998 37.9841044,9.8950926 38.6970166,11.4822805 C39.8706924,14.0952866 40.4864865,16.9448497 40.4864865,19.8767556 C40.4864865,22.2777324 40.0735965,24.6256686 39.2763854,26.8373923 C38.6857849,28.4759107 36.9035982,29.3162803 35.2957598,28.7144102 C33.7039999,28.1185588 32.8798583,26.3325488 33.4365937,24.7070353 L33.4538878,24.6578278 C34.0004269,23.14155 34.2836045,21.5312352 34.2836045,19.8767556 C34.2836045,17.8986906 33.878666,15.984485 33.1057115,14.2231126 L33.056923,14.1132266 C32.3440108,12.5260388 33.0286592,10.6504114 34.5861281,9.92389571 Z" id="Stroke-7" fill="#4E5C93"></path>
            </g>
            <g id="分组-3" transform="translate(79.045045, 74.200000)" fill-rule="nonzero">
                <path d="M6.74780874,0 C3.0169259,0 0,3.02401948 0,6.74551568 C0,10.4669972 3.01691166,13.4909091 6.74780874,13.4909091 C10.4786072,13.4909091 13.4954955,10.466974 13.4954955,6.74551568 C13.4954955,3.02404271 10.478593,0 6.74780874,0 Z M7.22979309,2.89090909 C9.62121868,2.89090909 11.5675676,4.82822054 11.5675676,7.2273358 C11.5675676,9.62641807 9.62125222,11.5636364 7.22979309,11.5636364 C4.83822214,11.5636364 2.89189189,9.62643312 2.89189189,7.2273358 C2.89189189,4.8282055 4.83825569,2.89090909 7.22979309,2.89090909 Z" id="Stroke-9" fill="#E4EBF7"></path>
                <path d="M11.3450729,2.99470121 C11.9659579,2.71643777 12.6851033,3.01694574 12.9513291,3.66590456 C13.3085401,4.53665103 13.4954955,5.48459774 13.4954955,6.45897637 C13.4954955,7.25636827 13.3702178,8.03685633 13.1279825,8.77321815 C12.9083238,9.44095025 12.2123681,9.79613397 11.5735219,9.56654319 C10.9456904,9.34091087 10.606664,8.63446407 10.8036519,7.97638462 L10.814516,7.94179637 C10.9689089,7.47246323 11.049095,6.97289878 11.049095,6.45897637 C11.049095,5.83170088 10.9297417,5.22652672 10.7029057,4.67358564 C10.4366799,4.02462682 10.7241879,3.27296466 11.3450729,2.99470121 Z" id="Stroke-11" fill="#A3B5D6"></path>
            </g>
        </g>
        <g id="分组" transform="translate(128.000005, 29.000000)">
            <g>
                <mask id="mask-6" fill="white">
                    <use xlink:href="#path-5"></use>
                </mask>
                <g id="Clip-2"></g>
                <path d="M23,-5.13392843e-06 C10.2974286,-5.13392843e-06 0,10.2974234 0,22.9999949 C0,35.702515 10.2974286,45.9999949 23,45.9999949 C35.7025714,45.9999949 46,35.702515 46,22.9999949 C46,10.2974234 35.7025714,-5.13392843e-06 23,-5.13392843e-06" id="Fill-1" fill="#4E5C93" mask="url(#mask-6)"></path>
            </g>
            <path d="M23.8749949,29 L23.1249949,29 C22.5036667,29 21.9999949,28.4505398 21.9999949,27.7727273 L21.9999949,12.2272727 C21.9999949,11.5494602 22.5036667,11 23.1249949,11 L23.8749949,11 C24.496323,11 24.9999949,11.5494602 24.9999949,12.2272727 L24.9999949,27.7727273 C24.9999949,28.4505398 24.496323,29 23.8749949,29" id="Fill-3" fill="#FFFFFF"></path>
            <path d="M23.8749949,34 L23.1249949,34 C22.5036667,34 21.9999949,33.4963281 21.9999949,32.875 L21.9999949,32.125 C21.9999949,31.5036719 22.5036667,31 23.1249949,31 L23.8749949,31 C24.496323,31 24.9999949,31.5036719 24.9999949,32.125 L24.9999949,32.875 C24.9999949,33.4963281 24.496323,34 23.8749949,34" id="Fill-5" fill="#FFFFFF"></path>
        </g>
    </g>
</svg>