<?xml version="1.0" encoding="UTF-8"?>
<svg width="180px" height="180px" viewBox="0 0 180 180" version="1.1" xmlns="http://www.w3.org/2000/svg" xmlns:xlink="http://www.w3.org/1999/xlink">
    <title>1.通用/空状态/请设置好相关条件 再来查看数据吧</title>
    <defs>
        <polygon id="path-1" points="0.104342359 -0.0677607204 7.10434236 -0.0677607204 7.10434236 6.93223928 0.104342359 6.93223928"></polygon>
        <polygon id="path-3" points="-0.140539691 0.0912675427 7.85946031 0.0912675427 7.85946031 8.09126754 -0.140539691 8.09126754"></polygon>
    </defs>
    <g id="1.通用/空状态/请设置好相关条件-再来查看数据吧" stroke="none" stroke-width="1" fill="none" fill-rule="evenodd">
        <g id="编组" transform="translate(53.005780, 41.356759) scale(-1, 1) rotate(33.000000) translate(-53.005780, -41.356759) translate(16.011764, 30.377032)">
            <g transform="translate(23.727387, 14.400337)">
                <mask id="mask-2" fill="white">
                    <use xlink:href="#path-1"></use>
                </mask>
                <g id="Clip-2"></g>
                <path d="M7.08579368,3.78933688 C6.88850525,5.71196837 5.16998659,7.11097902 3.24735506,6.9136906 C1.32410313,6.71640218 -0.0749075541,4.99788355 0.123001274,3.07463166 C0.320289698,1.15200018 2.03880836,-0.247010472 3.96143989,-0.0491016487 C5.88407142,0.148186771 7.2830821,1.8667054 7.08579368,3.78933688" id="Fill-1" fill="#E4E6EF" mask="url(#mask-2)"></path>
            </g>
            <path d="M53.0179043,4.96212194 C52.8206303,6.88475343 51.1022368,8.28376408 49.1797454,8.08647566 C47.2566335,7.88918724 45.8577248,6.17004821 46.0549988,4.24741672 C46.2528932,2.32478524 47.9712867,0.925774589 49.8937782,1.12368341 C51.8162696,1.32035143 53.2151784,3.03949046 53.0179043,4.96212194" id="Fill-3" fill="#E4E6EF"></path>
            <path d="M6.98774056,3.8531896 C6.79064868,5.77601616 5.07166469,7.17443548 3.14873345,6.97735432 C1.22637349,6.77970192 -0.172693245,5.06138276 0.0249699192,3.13855621 C0.222061802,1.21572965 1.94104579,-0.182689667 3.86340575,0.0143914865 C5.786337,0.21147264 7.18540373,1.93036305 6.98774056,3.8531896" id="Fill-5" fill="#E4E6EF"></path>
            <g transform="translate(66.325194, 9.391900)">
                <mask id="mask-4" fill="white">
                    <use xlink:href="#path-3"></use>
                </mask>
                <g id="Clip-8"></g>
                <path d="M7.83802499,4.49981035 C7.61213632,6.69732642 5.64834121,8.29551992 3.45082314,8.07028431 C1.25330507,7.84439585 -0.344889896,5.88060253 -0.119654087,3.68308647 C0.10623458,1.4855704 2.0700297,-0.112623103 4.26754777,0.112612501 C6.46441298,0.338500962 8.0632608,2.30229428 7.83802499,4.49981035" id="Fill-7" fill="#E4E6EF" mask="url(#mask-4)"></path>
            </g>
            <polygon id="Fill-9" fill="#E4E6EF" points="26.9360141 18.64481 26.8479242 18.5897956 3.56787704 3.94249942 3.75316969 3.64481002 26.9457344 18.237703 50.4365899 5.01161389 50.5137446 5.04217748 70.567877 12.9599818 70.4402985 13.2857897 50.4627131 5.39854897"></polygon>
        </g>
        <g id="资源-22" transform="translate(41.000000, 40.000000)">
            <polygon id="矩形" stroke="#707070" stroke-width="0.7896" transform="translate(39.185180, 106.184591) rotate(-57.590000) translate(-39.185180, -106.184591) " points="37.6031248 104.600624 40.7631693 104.60469 40.7672353 107.768558 37.6071908 107.764492"></polygon>
            <polyline id="路径" fill="#C1C1C1" fill-rule="nonzero" points="72 8 72 28 92 28"></polyline>
            <path d="M91.6302957,8.52651283e-14 L30.4643478,8.52651283e-14 C28.5510414,8.52651283e-14 27,1.54375785 27,3.44807966 L27,97.5519203 C27,99.4562422 28.5510414,101 30.4643478,101 L106.535652,101 C108.448959,101 110,99.4562422 110,97.5519203 L110,18.424239 L91.6302957,8.52651283e-14 Z" id="路径" fill="#7A83A4" fill-rule="nonzero"></path>
            <path d="M92,-9.23705556e-14 L92.0282885,15.4730451 C92.0282885,17.4209285 93.548114,19 95.4229137,19 L110,19" id="路径" fill="#E4EBF7" fill-rule="nonzero"></path>
            <path d="M64.378316,9 L3.45833333,9 C1.54834857,9 5.68434189e-14,10.5437578 5.68434189e-14,12.4480797 L5.68434189e-14,106.55192 C5.68434189e-14,108.456242 1.54834857,110 3.45833333,110 L79.5416667,110 C81.4516514,110 83,108.456242 83,106.55192 L83,29.1468421 L69.7099132,29.1468421 C67.800625,29.1468421 64.378316,27.6038265 64.378316,25.6987624 L64.378316,9 Z" id="路径" fill="#E4EBF7" fill-rule="nonzero"></path>
            <rect id="矩形" fill="#A3B5D6" fill-rule="nonzero" x="9" y="18" width="18" height="18" rx="2.37498486"></rect>
            <rect id="矩形" fill="#A3B5D6" fill-rule="nonzero" x="9" y="46" width="64" height="5" rx="0.862416376"></rect>
            <rect id="矩形" fill="#A3B5D6" fill-rule="nonzero" x="9" y="60" width="64" height="5" rx="0.862416376"></rect>
            <rect id="矩形-copy" fill="#A3B5D6" fill-rule="nonzero" x="9" y="73" width="64" height="5" rx="0.862416376"></rect>
            <path d="M64,9 L64,25.577052 C64,27.467494 65.5798046,29 67.5285924,29 L83,29" id="路径" fill="#FFFFFF" fill-rule="nonzero"></path>
        </g>
        <path d="M122.235976,142.091078 C118.370001,142.091078 115.235976,138.957053 115.235976,135.091078 C115.235976,131.225103 118.370001,128.091078 122.235976,128.091078 C126.101952,128.091078 129.235976,131.225103 129.235976,135.091078 C129.235976,138.957053 126.101952,142.091078 122.235976,142.091078 L122.235976,142.091078 Z M142.868864,137.931673 L142.868864,131.902619 L138.117103,130.69526 C137.768653,129.43367 137.267924,128.235427 136.63575,127.121444 L139.142538,122.906644 L134.879404,118.643433 L130.664605,121.150299 C129.550544,120.518048 128.352302,120.017395 127.090788,119.668868 L125.883353,114.917184 L119.854299,114.917184 L118.646941,119.668868 C117.38535,120.017395 116.187108,120.518048 115.073124,121.150299 L110.858324,118.643433 L106.595114,122.906644 L109.101902,127.121444 C108.469805,128.235427 107.969075,129.433747 107.620549,130.69526 L102.868864,131.902619 L102.868864,137.931673 L107.620549,139.139107 C107.969075,140.400621 108.469805,141.598864 109.101902,142.712924 L106.595114,146.927724 L110.858324,151.190935 L115.073124,148.684069 C116.187108,149.316243 117.38535,149.816973 118.646941,150.1655 L119.854299,154.917184 L125.883353,154.917184 L127.090788,150.1655 C128.352302,149.816973 129.550544,149.316243 130.664605,148.684069 L134.879404,151.190935 L139.142538,146.927724 L136.63575,142.712924 C137.267924,141.598864 137.768653,140.400621 138.117103,139.139107 L142.868864,137.931673 Z" id="Fill-1备份-2" fill="#253368" transform="translate(122.865629, 134.880324) rotate(-297.000000) translate(-122.865629, -134.880324) "></path>
    </g>
</svg>