<?xml version="1.0" encoding="UTF-8"?>
<svg width="180px" height="180px" viewBox="0 0 180 180" version="1.1" xmlns="http://www.w3.org/2000/svg" xmlns:xlink="http://www.w3.org/1999/xlink">
    <title>1.通用/空状态/审核中</title>
    <defs>
        <polygon id="path-1" points="0 0 97.2159296 0 97.2159296 97.2474872 0 97.2474872"></polygon>
        <path d="M48.5785744,0 C21.7485537,0 0,21.7556486 0,48.5928571 L0,48.5928571 C0,75.4316304 21.7485537,97.187279 48.5785744,97.187279 L48.5785744,97.187279 C75.4070308,97.187279 97.1563666,75.4316304 97.1563666,48.5928571 L97.1563666,48.5928571 C97.1563666,21.7556486 75.4070308,0 48.5785744,0 Z" id="path-3"></path>
        <path d="M48.5785744,0 C21.7485537,0 0,21.7556486 0,48.5928571 L0,48.5928571 C0,75.4316304 21.7485537,97.187279 48.5785744,97.187279 L48.5785744,97.187279 C75.4070308,97.187279 97.1563666,75.4316304 97.1563666,48.5928571 L97.1563666,48.5928571 C97.1563666,21.7556486 75.4070308,0 48.5785744,0 Z" id="path-5"></path>
        <path d="M48.5785744,0 C21.7485537,0 0,21.7556486 0,48.5928571 L0,48.5928571 C0,75.4316304 21.7485537,97.187279 48.5785744,97.187279 L48.5785744,97.187279 C75.4070308,97.187279 97.1563666,75.4316304 97.1563666,48.5928571 L97.1563666,48.5928571" id="path-7"></path>
        <path d="M48.5785744,0 C21.7485537,0 0,21.7556486 0,48.5928571 C0,75.4316304 21.7485537,97.187279 48.5785744,97.187279 C75.4070308,97.187279 97.1563666,75.4316304 97.1563666,48.5928571" id="path-9"></path>
        <polygon id="path-11" points="0 0 7.24639749 0 7.24639749 7.78563089 0 7.78563089"></polygon>
        <polygon id="path-13" points="0 0 36.2713403 0 36.2713403 36.2831729 0 36.2831729"></polygon>
    </defs>
    <g id="1.通用/空状态/审核中" stroke="none" stroke-width="1" fill="none" fill-rule="evenodd">
        <g id="编组-8" transform="translate(24.000000, 32.000000)">
            <g id="分组" transform="translate(14.492795, 10.324454)">
                <g transform="translate(0.000000, 0.271863)">
                    <mask id="mask-2" fill="white">
                        <use xlink:href="#path-1"></use>
                    </mask>
                    <g id="Clip-2"></g>
                    <path d="M97.2165557,48.6236653 C97.2165557,75.4783258 75.4529284,97.2474872 48.6085909,97.2474872 C21.7626882,97.2474872 -0.000156522185,75.4783258 -0.000156522185,48.6236653 C-0.000156522185,21.7690048 21.7626882,-0.000156573246 48.6085909,-0.000156573246 C75.4529284,-0.000156573246 97.2165557,21.7690048 97.2165557,48.6236653" id="Fill-1" fill="#A3B5D6" mask="url(#mask-2)"></path>
                </g>
                <g id="文件">
                    <mask id="mask-4" fill="white">
                        <use xlink:href="#path-3"></use>
                    </mask>
                    <g id="Clip-4"></g>
                    <path d="M74.3454524,45.0155015 L74.3454524,103.488257 C74.3454524,104.345746 73.2324883,104.779967 72.6200843,104.179881 L69.0535937,100.039525 L65.2970467,103.796515 C64.5485529,104.545253 63.3370411,104.553076 62.5791618,103.813727 L58.7029496,100.039525 L55.023833,103.768349 C54.2729929,104.528823 53.0474028,104.536646 52.2871771,103.784779 L48.4969987,100.039525 L44.6724068,103.80825 C43.9184382,104.549947 42.7084906,104.549947 41.9560862,103.806686 L38.1377513,100.039525 L34.3303661,103.796515 C33.573269,104.543688 32.3555002,104.538994 31.6038779,103.787126 L27.8559342,100.039525 L24.3801701,104.228389 C23.7701125,104.835516 22.810445,104.403642 22.810445,103.542241 L22.810445,45.0155015 L74.3454524,45.0155015 Z" id="Fill-3" fill="#F1F2F6" mask="url(#mask-4)"></path>
                    <mask id="mask-6" fill="white">
                        <use xlink:href="#path-5"></use>
                    </mask>
                    <g id="Clip-6"></g>
                    <path d="M22.7298079,44.832894 L74.4259331,44.832894 L74.4259331,41.7949113 C74.4259331,40.7261798 73.5593384,39.8600849 72.4909555,39.8600849 L24.6647855,39.8600849 C23.5956204,39.8600849 22.7298079,40.7261798 22.7298079,41.7949113 L22.7298079,44.832894 Z" id="Fill-5" fill="#4E5C93" mask="url(#mask-6)"></path>
                    <g id="分组" mask="url(#mask-6)">
                        <mask id="mask-8" fill="white">
                            <use xlink:href="#path-7"></use>
                        </mask>
                        <g id="Clip-8"></g>
                        <path d="M60.0564172,60.5752459 L67.7963275,60.5752459 C68.5088435,60.5752459 69.0860519,59.9978493 69.0860519,59.2851008 L69.0860519,51.5426655 C69.0860519,50.8306995 68.5088435,50.2533028 67.7963275,50.2533028 L60.0564172,50.2533028 C59.3439012,50.2533028 58.7666928,50.8306995 58.7666928,51.5426655 L58.7666928,59.2851008 C58.7666928,59.9978493 59.3439012,60.5752459 60.0564172,60.5752459" id="Fill-7" fill="#4E5C93" mask="url(#mask-8)"></path>
                    </g>
                    <mask id="mask-10" fill="white">
                        <use xlink:href="#path-9"></use>
                    </mask>
                    <g id="Clip-10"></g>
                    <path d="M63.2809627,60.5752459 C63.6368296,60.5752459 63.9254338,60.2865476 63.9254338,59.9305646 L63.9254338,56.0593469 C63.9254338,55.7025815 63.6368296,55.4138832 63.2809627,55.4138832 L59.4117896,55.4138832 C59.0551406,55.4138832 58.7665364,55.7025815 58.7665364,56.0593469 L58.7665364,59.9305646 C58.7665364,60.2865476 59.0551406,60.5752459 59.4117896,60.5752459 L63.2809627,60.5752459 Z" id="Fill-9" fill="#A3B5D6" mask="url(#mask-10)"></path>
                    <path d="M28.277265,68.2530566 L68.5371565,68.2530566 C68.7960399,68.2530566 69.0048673,68.0433787 69.0048673,67.7844108 L69.0048673,66.1414122 C69.0048673,65.8824443 68.7960399,65.6727664 68.5371565,65.6727664 L28.277265,65.6727664 C28.0191638,65.6727664 27.8087721,65.8824443 27.8087721,66.1414122 L27.8087721,67.7844108 C27.8087721,68.0433787 28.0191638,68.2530566 28.277265,68.2530566" id="Fill-11" fill="#A3B5D6"></path>
                    <path d="M28.277265,75.9309455 L68.5371565,75.9309455 C68.7960399,75.9309455 69.0048673,75.7212676 69.0048673,75.4622997 L69.0048673,73.8193011 C69.0048673,73.5603333 68.7960399,73.3506554 68.5371565,73.3506554 L28.277265,73.3506554 C28.0191638,73.3506554 27.8087721,73.5603333 27.8087721,73.8193011 L27.8087721,75.4622997 C27.8087721,75.7212676 28.0191638,75.9309455 28.277265,75.9309455" id="Fill-13" fill="#CCD7EE"></path>
                    <path d="M28.277265,83.6088345 L68.5371565,83.6088345 C68.7960399,83.6088345 69.0048673,83.3991565 69.0048673,83.1401887 L69.0048673,81.4971901 C69.0048673,81.2382222 68.7960399,81.0285443 68.5371565,81.0285443 L28.277265,81.0285443 C28.0191638,81.0285443 27.8087721,81.2382222 27.8087721,81.4971901 L27.8087721,83.1401887 C27.8087721,83.3991565 28.0191638,83.6088345 28.277265,83.6088345" id="Fill-15" fill="#E4EBF7"></path>
                </g>
            </g>
            <path d="M127.279296,57.3860281 L116.078886,57.3860281 C114.67529,57.3860281 113.526894,56.237257 113.526894,54.8332034 L113.526894,43.6291395 C113.526894,42.2250859 114.67529,41.0763148 116.078886,41.0763148 L127.279296,41.0763148 C128.682892,41.0763148 129.831288,42.2250859 129.831288,43.6291395 L129.831288,54.8332034 C129.831288,56.237257 128.682892,57.3860281 127.279296,57.3860281" id="Fill-1备份" fill="#929CBE" opacity="0.100000001"></path>
            <g id="分组备份" transform="translate(10.869615, 39.897767)">
                <mask id="mask-12" fill="white">
                    <use xlink:href="#path-11"></use>
                </mask>
                <g id="Clip-4"></g>
                <path d="M6.10748488,7.78563089 L1.1388512,7.78563089 C0.512467687,7.78563089 0,7.23946692 0,6.57204224 L0,1.21360174 C0,0.546111619 0.512467687,-5.23521666e-05 1.1388512,-5.23521666e-05 L6.10748488,-5.23521666e-05 C6.73386839,-5.23521666e-05 7.24639749,0.546111619 7.24639749,1.21360174 L7.24639749,6.57204224 C7.24639749,7.23946692 6.73386839,7.78563089 6.10748488,7.78563089" id="Fill-3" fill="#FFC540" mask="url(#mask-12)"></path>
            </g>
            <path d="M127.346941,78.5282489 C126.720557,78.5282489 126.20809,78.0197499 126.20809,77.3983527 L126.20809,72.4094447 C126.20809,71.7879865 126.720557,71.2794875 127.346941,71.2794875 L132.315574,71.2794875 C132.941958,71.2794875 133.454487,71.7879865 133.454487,72.4094447 L133.454487,77.3983527 C133.454487,78.0197499 132.941958,78.5282489 132.315574,78.5282489 L127.346941,78.5282489 Z" id="Fill-5备份" fill="#FF7A46"></path>
            <path d="M4.53687495,28.9950458 C2.04159373,28.9950458 0,26.952786 0,24.4566908 L0,4.53835499 C0,2.04225975 2.04159373,0 4.53687495,0 L24.448715,0 C26.9439962,0 28.98559,2.04225975 28.98559,4.53835499 L28.98559,24.4566908 C28.98559,26.952786 26.9439962,28.9950458 24.448715,28.9950458 L4.53687495,28.9950458 Z" id="Fill-7备份" fill="#929CBE" opacity="0.100000001"></path>
            <g id="分组" transform="translate(86.229359, 9.750532)">
                <g>
                    <mask id="mask-14" fill="white">
                        <use xlink:href="#path-13"></use>
                    </mask>
                    <g id="Clip-2"></g>
                    <path d="M18.1356681,-4.04946172e-06 C8.11959547,-4.04946172e-06 -4.04814111e-06,8.12224428 -4.04814111e-06,18.1415844 C-4.04814111e-06,28.1608841 8.11959547,36.2831729 18.1356681,36.2831729 C28.1517408,36.2831729 36.2713403,28.1608841 36.2713403,18.1415844 C36.2713403,8.12224428 28.1517408,-4.04946172e-06 18.1356681,-4.04946172e-06" id="Fill-1" fill="#597EF7" mask="url(#mask-14)"></path>
                </g>
                <g id="编组" transform="translate(8.000000, 16.000000)" fill="#FFFFFF">
                    <path d="M2.5,4 L1.5,4 C0.6715625,4 0,3.3284375 0,2.5 L0,1.5 C0,0.6715625 0.6715625,0 1.5,0 L2.5,0 C3.3284375,0 4,0.6715625 4,1.5 L4,2.5 C4,3.3284375 3.3284375,4 2.5,4" id="Fill-5"></path>
                    <path d="M10.5,4 L9.5,4 C8.6715625,4 8,3.3284375 8,2.5 L8,1.5 C8,0.6715625 8.6715625,0 9.5,0 L10.5,0 C11.3284375,0 12,0.6715625 12,1.5 L12,2.5 C12,3.3284375 11.3284375,4 10.5,4" id="Fill-5"></path>
                    <path d="M18.5,4 L17.5,4 C16.6715625,4 16,3.3284375 16,2.5 L16,1.5 C16,0.6715625 16.6715625,0 17.5,0 L18.5,0 C19.3284375,0 20,0.6715625 20,1.5 L20,2.5 C20,3.3284375 19.3284375,4 18.5,4" id="Fill-5"></path>
                </g>
            </g>
        </g>
        <g id="编组备份" transform="translate(53.439954, 63.776390)" fill="#393D65" fill-rule="nonzero">
            <path d="M0,33.2999587 L35.9995663,33.2999587 L35.9995663,37 L0,37 L0,33.2999587 Z M33.3394699,23.4333196 L24.6053494,23.4333196 C23.8176867,22.5732675 23.2581687,21.5983767 23.1666506,20.5057553 C22.7914699,16.0353024 27.999759,13.8946734 27.999759,8.41215153 C27.999759,3.75539528 24.1664096,0 18,0 C11.8331566,0 7.99980723,3.75539528 7.99980723,8.41215153 C7.99980723,13.8950865 13.2080964,16.0357155 12.8329157,20.5057553 C12.7413976,21.5987898 12.1818795,22.5732675 11.3942169,23.4333196 L2.66053012,23.4333196 C1.19146988,23.4333196 0.00043373494,24.5350289 0.00043373494,25.8940928 L0.00043373494,30.8334022 L36,30.8334022 L36,25.8940928 C36,24.5350289 34.8089639,23.4333196 33.3394699,23.4333196 Z" id="形状"></path>
        </g>
    </g>
</svg>